<svg width="16" height="16" viewBox="0 0 16 16" fill="none" xmlns="http://www.w3.org/2000/svg">
<g clip-path="url(#clip0_1_259)">
<rect width="16" height="16" rx="4" fill="url(#paint0_linear_1_259)"/>
<mask id="path-3-inside-1_1_259" fill="white">
<path d="M10.3578 -1.84497C10.6325 -1.85778 10.9537 -1.84733 11.2269 -1.82642C13.2401 -1.68593 15.1135 -0.74174 16.4242 0.792725C17.7419 2.33395 18.3581 4.39162 18.1967 6.40503C18.0295 8.41731 17.069 10.2814 15.5277 11.5857C13.9936 12.8679 12.0141 13.4936 10.0219 13.3269C9.29919 13.2824 8.57611 13.0975 7.89783 12.8503C7.46355 12.6918 7.06854 12.4231 6.599 12.3826C6.15974 12.3448 5.73473 12.4539 5.30505 12.5251C4.80047 12.6118 4.30099 12.7144 3.79138 12.7683C4.02751 12.145 4.32584 10.9756 4.24451 10.3025C4.19886 9.92736 3.83586 9.40084 3.66052 9.02222C3.24521 8.12415 2.99993 7.17964 2.94666 6.19214C2.83278 4.17622 3.52127 2.19611 4.86072 0.685303C6.33504 -0.952178 8.18182 -1.73021 10.3578 -1.84497ZM10.7357 7.15405C10.3282 7.15405 9.99744 7.48483 9.99744 7.89233C9.99757 8.29972 10.3283 8.62964 10.7357 8.62964H13.2465C13.6539 8.62961 13.9846 8.29971 13.9847 7.89233C13.9847 7.48485 13.6539 7.15408 13.2465 7.15405H10.7357ZM8.4281 4.20581C8.02072 4.20581 7.69002 4.53578 7.68982 4.94312C7.68982 5.35062 8.0206 5.6814 8.4281 5.6814H13.2465C13.654 5.68139 13.9847 5.35061 13.9847 4.94312C13.9845 4.53579 13.6538 4.20582 13.2465 4.20581H8.4281Z"/>
</mask>
<path d="M10.3578 -1.84497C10.6325 -1.85778 10.9537 -1.84733 11.2269 -1.82642C13.2401 -1.68593 15.1135 -0.74174 16.4242 0.792725C17.7419 2.33395 18.3581 4.39162 18.1967 6.40503C18.0295 8.41731 17.069 10.2814 15.5277 11.5857C13.9936 12.8679 12.0141 13.4936 10.0219 13.3269C9.29919 13.2824 8.57611 13.0975 7.89783 12.8503C7.46355 12.6918 7.06854 12.4231 6.599 12.3826C6.15974 12.3448 5.73473 12.4539 5.30505 12.5251C4.80047 12.6118 4.30099 12.7144 3.79138 12.7683C4.02751 12.145 4.32584 10.9756 4.24451 10.3025C4.19886 9.92736 3.83586 9.40084 3.66052 9.02222C3.24521 8.12415 2.99993 7.17964 2.94666 6.19214C2.83278 4.17622 3.52127 2.19611 4.86072 0.685303C6.33504 -0.952178 8.18182 -1.73021 10.3578 -1.84497ZM10.7357 7.15405C10.3282 7.15405 9.99744 7.48483 9.99744 7.89233C9.99757 8.29972 10.3283 8.62964 10.7357 8.62964H13.2465C13.6539 8.62961 13.9846 8.29971 13.9847 7.89233C13.9847 7.48485 13.6539 7.15408 13.2465 7.15405H10.7357ZM8.4281 4.20581C8.02072 4.20581 7.69002 4.53578 7.68982 4.94312C7.68982 5.35062 8.0206 5.6814 8.4281 5.6814H13.2465C13.654 5.68139 13.9847 5.35061 13.9847 4.94312C13.9845 4.53579 13.6538 4.20582 13.2465 4.20581H8.4281Z" fill="url(#paint1_linear_1_259)"/>
<path d="M10.3578 -1.84497L10.3345 -2.34444L10.3315 -2.34428L10.3578 -1.84497ZM11.2269 -1.82642L11.1888 -1.32786L11.1921 -1.32763L11.2269 -1.82642ZM16.4242 0.792725L16.044 1.11747L16.0442 1.11764L16.4242 0.792725ZM18.1967 6.40503L18.6949 6.44642L18.6951 6.44499L18.1967 6.40503ZM15.5277 11.5857L15.8484 11.9693L15.8507 11.9674L15.5277 11.5857ZM10.0219 13.3269L10.0636 12.8285L10.0526 12.8278L10.0219 13.3269ZM7.89783 12.8503L7.72634 13.32L7.72663 13.3201L7.89783 12.8503ZM6.599 12.3826L6.64197 11.8844L6.64181 11.8844L6.599 12.3826ZM5.30505 12.5251L5.22326 12.0319L5.22041 12.0324L5.30505 12.5251ZM3.79138 12.7683L3.32381 12.5912L3.036 13.3509L3.84394 13.2655L3.79138 12.7683ZM4.24451 10.3025L4.7409 10.2425L4.74085 10.2421L4.24451 10.3025ZM3.66052 9.02222L3.2067 9.23209L3.20681 9.23232L3.66052 9.02222ZM2.94666 6.19214L3.44593 6.16521L3.44586 6.16394L2.94666 6.19214ZM4.86072 0.685303L4.48913 0.350737L4.48658 0.353603L4.86072 0.685303ZM10.7357 7.15405V7.65405V7.65405V7.15405ZM9.99744 7.89233H9.49744V7.8925L9.99744 7.89233ZM10.7357 8.62964V9.12964V9.12964V8.62964ZM13.2465 8.62964V9.12964H13.2465L13.2465 8.62964ZM13.9847 7.89233L14.4847 7.89249V7.89233H13.9847ZM13.2465 7.15405L13.2465 6.65405H13.2465V7.15405ZM8.4281 4.20581V3.70581H8.4281L8.4281 4.20581ZM7.68982 4.94312L7.18982 4.94287V4.94312H7.68982ZM8.4281 5.6814L8.4281 6.1814H8.4281V5.6814ZM13.2465 5.6814V6.1814H13.2465L13.2465 5.6814ZM13.9847 4.94312H14.4847V4.94287L13.9847 4.94312ZM13.2465 4.20581L13.2465 3.70581H13.2465V4.20581ZM10.3578 -1.84497L10.3811 -1.34551C10.6295 -1.3571 10.9292 -1.34774 11.1888 -1.32787L11.2269 -1.82642L11.2651 -2.32496C10.9782 -2.34692 10.6355 -2.35847 10.3345 -2.34443L10.3578 -1.84497ZM11.2269 -1.82642L11.1921 -1.32763C13.0714 -1.19648 14.8204 -0.315018 16.044 1.11747L16.4242 0.792725L16.8044 0.467983C15.4066 -1.16846 13.4087 -2.17537 11.2617 -2.3252L11.2269 -1.82642ZM16.4242 0.792725L16.0442 1.11764C17.27 2.55144 17.8497 4.47559 17.6983 6.36507L18.1967 6.40503L18.6951 6.44499C18.8664 4.30764 18.2138 2.11645 16.8042 0.467807L16.4242 0.792725ZM18.1967 6.40503L17.6984 6.36364C17.5422 8.2437 16.6448 9.98537 15.2047 11.204L15.5277 11.5857L15.8507 11.9674C17.4933 10.5774 18.5168 8.59093 18.6949 6.44642L18.1967 6.40503ZM15.5277 11.5857L15.2071 11.202C13.774 12.3998 11.9247 12.9844 10.0635 12.8286L10.0219 13.3269L9.98015 13.8252C12.1035 14.0029 14.2132 13.336 15.8484 11.9693L15.5277 11.5857ZM10.0219 13.3269L10.0526 12.8278C9.39203 12.7872 8.7177 12.617 8.06903 12.3806L7.89783 12.8503L7.72663 13.3201C8.43452 13.5781 9.20636 13.7777 9.99114 13.826L10.0219 13.3269ZM7.89783 12.8503L8.06931 12.3807C7.8676 12.307 7.71643 12.2247 7.46101 12.1137C7.23275 12.0144 6.95765 11.9117 6.64197 11.8844L6.599 12.3826L6.55603 12.8807C6.70989 12.894 6.86706 12.9458 7.06227 13.0307C7.2303 13.1038 7.49378 13.2351 7.72634 13.32L7.89783 12.8503ZM6.599 12.3826L6.64181 11.8844C6.12004 11.8396 5.59428 11.9704 5.22326 12.0319L5.30505 12.5251L5.38685 13.0184C5.87518 12.9374 6.19945 12.8501 6.55618 12.8807L6.599 12.3826ZM5.30505 12.5251L5.22041 12.0324C4.69454 12.1227 4.22694 12.2195 3.73882 12.2711L3.79138 12.7683L3.84394 13.2655C4.37503 13.2094 4.90641 13.1009 5.3897 13.0179L5.30505 12.5251ZM3.79138 12.7683L4.25896 12.9454C4.38691 12.6077 4.52769 12.134 4.62664 11.6553C4.72322 11.1881 4.79162 10.6623 4.7409 10.2425L4.24451 10.3025L3.74812 10.3625C3.77873 10.6158 3.73863 11.0112 3.64735 11.4528C3.55844 11.8829 3.43198 12.3056 3.32381 12.5912L3.79138 12.7683ZM4.24451 10.3025L4.74085 10.2421C4.70568 9.95314 4.56051 9.65383 4.444 9.43155C4.30462 9.16562 4.19693 8.99069 4.11424 8.81211L3.66052 9.02222L3.20681 9.23232C3.29945 9.43237 3.46092 9.71001 3.55829 9.89578C3.67853 10.1252 3.73768 10.2767 3.74817 10.3629L4.24451 10.3025ZM3.66052 9.02222L4.11434 8.81235C3.72411 7.96851 3.49559 7.08585 3.44593 6.16521L2.94666 6.19214L2.44738 6.21907C2.50426 7.27344 2.76631 8.2798 3.2067 9.23209L3.66052 9.02222ZM2.94666 6.19214L3.44586 6.16394C3.33943 4.27985 3.98292 2.42909 5.23485 1.017L4.86072 0.685303L4.48658 0.353603C3.05962 1.96312 2.32613 4.07259 2.44745 6.22034L2.94666 6.19214ZM4.86072 0.685303L5.2323 1.01986C6.60759 -0.50764 8.32427 -1.23702 10.3841 -1.34566L10.3578 -1.84497L10.3315 -2.34428C8.03938 -2.22339 6.06248 -1.39672 4.48914 0.350747L4.86072 0.685303ZM10.7357 7.15405V6.65405C10.0521 6.65405 9.49744 7.20869 9.49744 7.89233H9.99744H10.4974C10.4974 7.76097 10.6044 7.65405 10.7357 7.65405V7.15405ZM9.99744 7.89233L9.49744 7.8925C9.49766 8.5766 10.0529 9.12964 10.7357 9.12964V8.62964V8.12964C10.6037 8.12964 10.4975 8.02284 10.4974 7.89217L9.99744 7.89233ZM10.7357 8.62964V9.12964H13.2465V8.62964V8.12964H10.7357V8.62964ZM13.2465 8.62964L13.2465 9.12964C13.9293 9.12959 14.4845 8.57662 14.4847 7.89249L13.9847 7.89233L13.4847 7.89217C13.4847 8.0228 13.3784 8.12963 13.2464 8.12964L13.2465 8.62964ZM13.9847 7.89233H14.4847C14.4847 7.20867 13.9301 6.6541 13.2465 6.65405L13.2465 7.15405L13.2464 7.65405C13.3778 7.65406 13.4847 7.76102 13.4847 7.89233H13.9847ZM13.2465 7.15405V6.65405H10.7357V7.15405V7.65405H13.2465V7.15405ZM8.4281 4.20581L8.4281 3.70581C7.7452 3.70581 7.19015 4.25897 7.18982 4.94287L7.68982 4.94312L8.18982 4.94336C8.18988 4.8126 8.29625 4.70581 8.4281 4.70581L8.4281 4.20581ZM7.68982 4.94312H7.18982C7.18982 5.62676 7.74446 6.18139 8.4281 6.1814L8.4281 5.6814L8.4281 5.1814C8.29674 5.1814 8.18982 5.07447 8.18982 4.94312H7.68982ZM8.4281 5.6814V6.1814H13.2465V5.6814V5.1814H8.4281V5.6814ZM13.2465 5.6814L13.2465 6.1814C13.9301 6.18138 14.4847 5.62677 14.4847 4.94312H13.9847H13.4847C13.4847 5.07445 13.3778 5.18139 13.2464 5.1814L13.2465 5.6814ZM13.9847 4.94312L14.4847 4.94287C14.4844 4.25896 13.9293 3.70583 13.2465 3.70581L13.2465 4.20581L13.2464 4.70581C13.3783 4.70581 13.4847 4.81262 13.4847 4.94336L13.9847 4.94312ZM13.2465 4.20581V3.70581H8.4281V4.20581V4.70581H13.2465V4.20581Z" fill="#A8EA43" mask="url(#path-3-inside-1_1_259)"/>
</g>
<rect x="0.25" y="0.25" width="15.5" height="15.5" rx="3.75" stroke="#4A4A4A" stroke-width="0.5"/>
<defs>
<linearGradient id="paint0_linear_1_259" x1="8" y1="4.21334" x2="13.4771" y2="23.6067" gradientUnits="userSpaceOnUse">
<stop stop-color="#353435"/>
<stop offset="0.115385" stop-color="#383838"/>
<stop offset="1" stop-color="#827D82"/>
</linearGradient>
<linearGradient id="paint1_linear_1_259" x1="11.0035" y1="-2.58412" x2="11.0035" y2="13.3526" gradientUnits="userSpaceOnUse">
<stop stop-color="#95EA5C"/>
<stop offset="1" stop-color="#8BBF2F"/>
</linearGradient>
<clipPath id="clip0_1_259">
<rect width="16" height="16" rx="4" fill="white"/>
</clipPath>
</defs>
</svg>
