<svg width="128" height="128" viewBox="0 0 128 128" fill="none" xmlns="http://www.w3.org/2000/svg">
  <path d="M108.104 0C108.571 0.053 109.026 0.183 109.234 0.649C109.586 1.436 109.747 2.581 109.961 3.443C110.684 6.351 111.751 9.386 113.643 11.739C114.901 13.304 116.477 14.584 118.266 15.495C120.879 16.841 123.546 17.365 126.326 18.178C127.463 18.512 127.598 20.015 126.366 20.468C125.499 20.788 124.553 20.928 123.66 21.18C120.764 21.981 118.036 23.228 115.734 25.181C112.99 27.506 111.298 30.576 110.395 34.028C110.132 35.034 109.978 36.072 109.66 37.058C109.549 37.402 109.172 37.663 108.891 37.856C108.22 37.905 107.703 37.749 107.44 37.044C107.185 36.358 107.033 35.476 106.861 34.752C105.345 28.382 101.265 23.163 94.746 21.502C93.475 21.061 92.083 20.904 90.807 20.531C89.513 20.152 89.489 18.668 90.721 18.175C91.503 17.862 92.333 17.759 93.127 17.551C94.326 17.231 95.505 16.844 96.659 16.391C101.889 14.281 104.829 10.197 106.196 4.856C106.538 3.522 106.754 2.069 107.17 0.782C107.3 0.378 107.724 0.151 108.104 0Z" fill="#90D445"/>
  <path d="M51.434 20.333C53.307 20.245 55.489 20.318 57.353 20.461C71.072 21.416 83.832 27.845 92.763 38.302C101.744 48.803 105.935 62.819 104.835 76.539C103.697 90.251 97.157 102.949 86.653 111.836C76.2 120.574 62.722 124.836 49.146 123.698C44.219 123.395 39.299 122.139 34.675 120.453C31.712 119.372 29.026 117.536 25.822 117.263C22.827 117.005 19.941 117.748 17.011 118.233C13.569 118.824 10.17 119.524 6.694 119.891C8.303 115.643 10.34 107.676 9.783 103.091C9.472 100.532 6.996 96.948 5.803 94.368C2.972 88.247 1.304 81.817 0.942 75.086C0.166 61.35 4.852 47.865 13.979 37.572C24.024 26.413 36.606 21.114 51.434 20.333Z" fill="#90D445"/>
  <path d="M72.207 54.389C75.467 54.389 78.109 57.032 78.109 60.292C78.109 63.552 75.467 66.195 72.207 66.195H33.66C30.4 66.195 27.757 63.552 27.757 60.292C27.757 57.032 30.4 54.389 33.66 54.389H72.207Z" fill="#000000"/>
  <path d="M72.206 77.978C75.466 77.978 78.109 80.621 78.109 83.881C78.109 87.141 75.466 89.783 72.206 89.783L52.119 89.783C48.859 89.783 46.216 87.141 46.216 83.881C46.216 80.621 48.859 77.978 52.119 77.978L72.206 77.978Z" fill="#000000"/>
</svg>
