<svg width="128" height="128" viewBox="0 0 128 128" fill="none" xmlns="http://www.w3.org/2000/svg">
<rect x="0.5" y="0.5" width="127" height="127" rx="39.5" fill="url(#paint0_linear_1_87)"/>
<rect x="0.5" y="0.5" width="127" height="127" rx="39.5" stroke="#4A4A4A"/>
<mask id="path-2-inside-1_1_87" fill="white">
<path d="M62.7429 20.6104C64.3132 20.5369 66.1429 20.5982 67.7048 20.7178C74.9835 21.2248 81.9389 23.5726 87.9636 27.4482C87.6316 27.851 87.2862 28.2394 86.9216 28.6074C85.4039 30.1517 83.5445 31.3442 81.4666 32.1816C80.1557 32.6955 78.8155 33.1369 77.4558 33.5C76.7136 33.7068 75.5579 33.8343 74.1833 34.373C72.878 34.8404 71.2894 36.3846 71.3611 38.4678C71.3722 40.5759 73.2037 42.0976 74.5339 42.4072C76.444 42.9485 78.0597 43.1351 79.239 43.5566L79.4597 43.6221C82.7154 44.4384 85.6236 46.2175 87.824 48.7432C90.0343 51.2608 91.5409 54.4616 92.3494 57.8623C92.5533 58.6879 92.6953 59.6997 93.1589 60.9922C93.4005 61.6949 94.0748 62.7776 95.1677 63.3057C96.2379 63.8254 97.0886 63.7772 97.6765 63.7461L98.4089 63.6914L99.0125 63.2783C99.3968 62.9351 100.283 62.6945 101.004 60.8936C101.481 59.3897 101.667 58.0729 101.945 57.0322C102.625 54.3934 103.764 51.9486 105.364 49.9033C107.257 55.6077 107.996 61.7033 107.512 67.7314C106.558 79.2274 101.075 89.8735 92.2693 97.3242C83.5054 104.649 72.2052 108.223 60.824 107.27C56.6937 107.016 52.5686 105.961 48.6921 104.548C46.2087 103.642 43.9558 102.104 41.2703 101.874C38.7598 101.658 36.3383 102.281 33.8826 102.688C30.9976 103.183 28.147 103.77 25.2332 104.077C26.5825 100.515 28.2897 93.8361 27.823 89.9922C27.562 87.8476 25.4875 84.8427 24.4871 82.6797C22.1139 77.5483 20.7146 72.1563 20.4109 66.5137C19.7605 54.9988 23.6903 43.6929 31.3416 35.0635C39.7634 25.7084 50.3123 21.2655 62.7429 20.6104ZM63.3171 71.9385C60.5844 71.9387 58.3681 74.154 58.3679 76.8867C58.3679 79.6197 60.5843 81.8357 63.3171 81.8359H80.158C82.8908 81.8357 85.1062 79.6197 85.1062 76.8867C85.106 74.154 82.8907 71.9387 80.158 71.9385H63.3171ZM47.8416 52.1621C45.1088 52.1624 42.8925 54.3785 42.8923 57.1113C42.8925 59.8441 45.1088 62.0593 47.8416 62.0596H80.158C82.8907 62.0593 85.106 59.8441 85.1062 57.1113C85.106 54.3785 82.8908 52.1623 80.158 52.1621H47.8416ZM96.5916 18.1396C97.0787 18.1947 97.5522 18.3309 97.7693 18.8164C98.1362 19.6368 98.3039 20.83 98.5271 21.7285C99.2802 24.7597 100.393 27.9232 102.365 30.376C103.677 32.0069 105.319 33.3408 107.184 34.29C109.908 35.6929 112.688 36.2401 115.585 37.0879C116.77 37.4357 116.911 39.0025 115.627 39.4746C114.723 39.8075 113.737 39.9538 112.806 40.2158C109.788 41.0513 106.944 42.3516 104.544 44.3867C101.684 46.8106 99.9207 50.0105 98.9792 53.6084C98.7049 54.6564 98.5452 55.7384 98.2136 56.7666C98.0981 57.125 97.7041 57.3976 97.4109 57.5986C96.7116 57.6496 96.1727 57.4868 95.8992 56.752C95.633 56.0376 95.4755 55.1178 95.2957 54.3623C93.7157 47.7233 89.4633 42.2828 82.6677 40.5518C81.3427 40.092 79.8914 39.928 78.5613 39.5391C77.2134 39.1443 77.1879 37.5981 78.4724 37.084C79.2875 36.7578 80.152 36.6502 80.9802 36.4336C82.2293 36.1008 83.4586 35.6967 84.6619 35.2246C90.1128 33.025 93.1772 28.7675 94.6023 23.2012C94.9584 21.8103 95.1833 20.2958 95.6169 18.9551C95.7532 18.5339 96.1956 18.2969 96.5916 18.1396Z"/>
</mask>
<path d="M62.7429 20.6104C64.3132 20.5369 66.1429 20.5982 67.7048 20.7178C74.9835 21.2248 81.9389 23.5726 87.9636 27.4482C87.6316 27.851 87.2862 28.2394 86.9216 28.6074C85.4039 30.1517 83.5445 31.3442 81.4666 32.1816C80.1557 32.6955 78.8155 33.1369 77.4558 33.5C76.7136 33.7068 75.5579 33.8343 74.1833 34.373C72.878 34.8404 71.2894 36.3846 71.3611 38.4678C71.3722 40.5759 73.2037 42.0976 74.5339 42.4072C76.444 42.9485 78.0597 43.1351 79.239 43.5566L79.4597 43.6221C82.7154 44.4384 85.6236 46.2175 87.824 48.7432C90.0343 51.2608 91.5409 54.4616 92.3494 57.8623C92.5533 58.6879 92.6953 59.6997 93.1589 60.9922C93.4005 61.6949 94.0748 62.7776 95.1677 63.3057C96.2379 63.8254 97.0886 63.7772 97.6765 63.7461L98.4089 63.6914L99.0125 63.2783C99.3968 62.9351 100.283 62.6945 101.004 60.8936C101.481 59.3897 101.667 58.0729 101.945 57.0322C102.625 54.3934 103.764 51.9486 105.364 49.9033C107.257 55.6077 107.996 61.7033 107.512 67.7314C106.558 79.2274 101.075 89.8735 92.2693 97.3242C83.5054 104.649 72.2052 108.223 60.824 107.27C56.6937 107.016 52.5686 105.961 48.6921 104.548C46.2087 103.642 43.9558 102.104 41.2703 101.874C38.7598 101.658 36.3383 102.281 33.8826 102.688C30.9976 103.183 28.147 103.77 25.2332 104.077C26.5825 100.515 28.2897 93.8361 27.823 89.9922C27.562 87.8476 25.4875 84.8427 24.4871 82.6797C22.1139 77.5483 20.7146 72.1563 20.4109 66.5137C19.7605 54.9988 23.6903 43.6929 31.3416 35.0635C39.7634 25.7084 50.3123 21.2655 62.7429 20.6104ZM63.3171 71.9385C60.5844 71.9387 58.3681 74.154 58.3679 76.8867C58.3679 79.6197 60.5843 81.8357 63.3171 81.8359H80.158C82.8908 81.8357 85.1062 79.6197 85.1062 76.8867C85.106 74.154 82.8907 71.9387 80.158 71.9385H63.3171ZM47.8416 52.1621C45.1088 52.1624 42.8925 54.3785 42.8923 57.1113C42.8925 59.8441 45.1088 62.0593 47.8416 62.0596H80.158C82.8907 62.0593 85.106 59.8441 85.1062 57.1113C85.106 54.3785 82.8908 52.1623 80.158 52.1621H47.8416ZM96.5916 18.1396C97.0787 18.1947 97.5522 18.3309 97.7693 18.8164C98.1362 19.6368 98.3039 20.83 98.5271 21.7285C99.2802 24.7597 100.393 27.9232 102.365 30.376C103.677 32.0069 105.319 33.3408 107.184 34.29C109.908 35.6929 112.688 36.2401 115.585 37.0879C116.77 37.4357 116.911 39.0025 115.627 39.4746C114.723 39.8075 113.737 39.9538 112.806 40.2158C109.788 41.0513 106.944 42.3516 104.544 44.3867C101.684 46.8106 99.9207 50.0105 98.9792 53.6084C98.7049 54.6564 98.5452 55.7384 98.2136 56.7666C98.0981 57.125 97.7041 57.3976 97.4109 57.5986C96.7116 57.6496 96.1727 57.4868 95.8992 56.752C95.633 56.0376 95.4755 55.1178 95.2957 54.3623C93.7157 47.7233 89.4633 42.2828 82.6677 40.5518C81.3427 40.092 79.8914 39.928 78.5613 39.5391C77.2134 39.1443 77.1879 37.5981 78.4724 37.084C79.2875 36.7578 80.152 36.6502 80.9802 36.4336C82.2293 36.1008 83.4586 35.6967 84.6619 35.2246C90.1128 33.025 93.1772 28.7675 94.6023 23.2012C94.9584 21.8103 95.1833 20.2958 95.6169 18.9551C95.7532 18.5339 96.1956 18.2969 96.5916 18.1396Z" fill="url(#paint1_linear_1_87)"/>
<path d="M62.7429 20.6104L62.6494 18.6125L62.6377 18.6131L62.7429 20.6104ZM67.7048 20.7178L67.5521 22.712L67.5658 22.7129L67.7048 20.7178ZM87.9636 27.4482L89.507 28.7203L90.9383 26.9837L89.0457 25.7662L87.9636 27.4482ZM86.9216 28.6074L85.5007 27.1999L85.4952 27.2056L86.9216 28.6074ZM81.4666 32.1816L82.1965 34.0437L82.2053 34.0402L82.2141 34.0367L81.4666 32.1816ZM77.4558 33.5L76.9397 31.5677L76.9294 31.5705L76.919 31.5734L77.4558 33.5ZM74.1833 34.373L74.8575 36.256L74.8855 36.246L74.9132 36.2351L74.1833 34.373ZM71.3611 38.4678L73.3611 38.4572L73.3609 38.4281L73.3599 38.399L71.3611 38.4678ZM74.5339 42.4072L75.0792 40.483L75.0336 40.4701L74.9873 40.4593L74.5339 42.4072ZM79.239 43.5566L78.5658 45.4399L78.6177 45.4585L78.6705 45.4742L79.239 43.5566ZM79.4597 43.6221L78.8913 45.5396L78.932 45.5517L78.9733 45.562L79.4597 43.6221ZM87.824 48.7432L86.316 50.0569L86.321 50.0627L87.824 48.7432ZM92.3494 57.8623L90.4036 58.3249L90.4056 58.3335L90.4078 58.3421L92.3494 57.8623ZM93.1589 60.9922L95.0502 60.3419L95.0459 60.3293L95.0415 60.3168L93.1589 60.9922ZM95.1677 63.3057L96.0415 61.5066L96.0378 61.5048L95.1677 63.3057ZM97.6765 63.7461L97.782 65.7433L97.8037 65.7422L97.8254 65.7405L97.6765 63.7461ZM98.4089 63.6914L98.5579 65.6859L99.0945 65.6458L99.5386 65.3418L98.4089 63.6914ZM99.0125 63.2783L100.142 64.9287L100.248 64.856L100.344 64.7702L99.0125 63.2783ZM101.004 60.8936L102.86 61.6368L102.888 61.5684L102.91 61.4983L101.004 60.8936ZM101.945 57.0322L103.877 57.5491L103.88 57.5401L103.882 57.531L101.945 57.0322ZM105.364 49.9033L107.262 49.2733L106.087 45.7334L103.789 48.6709L105.364 49.9033ZM107.512 67.7314L109.506 67.8969L109.506 67.8913L107.512 67.7314ZM92.2693 97.3242L93.5519 98.8588L93.5611 98.851L92.2693 97.3242ZM60.824 107.27L60.991 105.277L60.9688 105.275L60.9467 105.273L60.824 107.27ZM48.6921 104.548L48.0066 106.427L48.0072 106.427L48.6921 104.548ZM41.2703 101.874L41.0989 103.867L41.0998 103.867L41.2703 101.874ZM33.8826 102.688L33.5556 100.714L33.544 100.716L33.8826 102.688ZM25.2332 104.077L23.3629 103.369L22.2117 106.407L25.4431 106.066L25.2332 104.077ZM27.823 89.9922L29.8084 89.7512L29.8083 89.7506L27.823 89.9922ZM24.4871 82.6797L22.6718 83.5192L22.6718 83.5193L24.4871 82.6797ZM20.4109 66.5137L22.408 66.4062L22.4077 66.4009L20.4109 66.5137ZM31.3416 35.0635L29.8551 33.7253L29.8501 33.731L29.8451 33.7366L31.3416 35.0635ZM63.3171 71.9385V69.9385H63.3169L63.3171 71.9385ZM58.3679 76.8867L56.3679 76.8866V76.8867H58.3679ZM63.3171 81.8359L63.3169 83.8359H63.3171V81.8359ZM80.158 81.8359V83.8359H80.1581L80.158 81.8359ZM85.1062 76.8867H87.1062V76.8866L85.1062 76.8867ZM80.158 71.9385L80.1581 69.9385H80.158V71.9385ZM47.8416 52.1621V50.1621H47.8414L47.8416 52.1621ZM42.8923 57.1113L40.8923 57.1112V57.1115L42.8923 57.1113ZM47.8416 62.0596L47.8414 64.0596H47.8416V62.0596ZM80.158 62.0596V64.0596H80.1581L80.158 62.0596ZM85.1062 57.1113L87.1062 57.1115V57.1112L85.1062 57.1113ZM80.158 52.1621L80.1581 50.1621H80.158V52.1621ZM96.5916 18.1396L96.8161 16.1523L96.3188 16.0961L95.8536 16.2808L96.5916 18.1396ZM97.7693 18.8164L95.9435 19.6327L95.9436 19.6329L97.7693 18.8164ZM98.5271 21.7285L96.5861 22.2107L96.5861 22.2108L98.5271 21.7285ZM102.365 30.376L100.806 31.629L100.806 31.6294L102.365 30.376ZM107.184 34.29L108.1 32.512L108.091 32.5076L107.184 34.29ZM115.585 37.0879L116.148 35.1688L116.146 35.1684L115.585 37.0879ZM115.627 39.4746L114.937 37.5974L114.936 37.5978L115.627 39.4746ZM112.806 40.2158L113.34 42.1434L113.349 42.1409L112.806 40.2158ZM104.544 44.3867L105.837 45.9124L105.837 45.9122L104.544 44.3867ZM98.9792 53.6084L100.914 54.1149L100.914 54.1147L98.9792 53.6084ZM98.2136 56.7666L96.3102 56.1527L96.3101 56.1531L98.2136 56.7666ZM97.4109 57.5986L97.5564 59.5933L98.0958 59.554L98.5418 59.2482L97.4109 57.5986ZM95.8992 56.752L97.7735 56.0541L97.7733 56.0536L95.8992 56.752ZM95.2957 54.3623L93.35 54.8253L93.35 54.8255L95.2957 54.3623ZM82.6677 40.5518L82.0121 42.4413L82.092 42.469L82.174 42.4899L82.6677 40.5518ZM78.5613 39.5391L77.9991 41.4584L78 41.4587L78.5613 39.5391ZM78.4724 37.084L77.7293 35.2272L77.7293 35.2272L78.4724 37.084ZM80.9802 36.4336L81.4863 38.3685L81.4952 38.3662L80.9802 36.4336ZM84.6619 35.2246L85.3923 37.0865L85.4013 37.0829L85.4103 37.0793L84.6619 35.2246ZM94.6023 23.2012L96.5398 23.6972V23.6972L94.6023 23.2012ZM95.6169 18.9551L93.7141 18.3394L93.714 18.3396L95.6169 18.9551ZM62.7429 20.6104L62.8364 22.6082C64.3001 22.5397 66.0434 22.5964 67.5521 22.7119L67.7048 20.7178L67.8575 18.7236C66.2425 18.5999 64.3263 18.5341 62.6494 18.6125L62.7429 20.6104ZM67.7048 20.7178L67.5658 22.7129C74.5051 23.1963 81.1367 25.4346 86.8816 29.1303L87.9636 27.4482L89.0457 25.7662C82.7412 21.7106 75.462 19.2533 67.8438 18.7226L67.7048 20.7178ZM87.9636 27.4482L86.4203 26.1762C86.1198 26.5408 85.8151 26.8826 85.5007 27.1999L86.9216 28.6074L88.3425 30.0149C88.7573 29.5962 89.1435 29.1613 89.507 28.7203L87.9636 27.4482ZM86.9216 28.6074L85.4952 27.2056C84.1907 28.5329 82.5705 29.5805 80.719 30.3266L81.4666 32.1816L82.2141 34.0367C84.5184 33.108 86.6171 31.7706 88.3481 30.0093L86.9216 28.6074ZM81.4666 32.1816L80.7366 30.3196C79.4946 30.8065 78.2258 31.2243 76.9397 31.5677L77.4558 33.5L77.9719 35.4323C79.4052 35.0495 80.8168 34.5846 82.1965 34.0437L81.4666 32.1816ZM77.4558 33.5L76.919 31.5734C76.6011 31.6619 76.3177 31.7026 75.6159 31.8612C75.0079 31.9986 74.269 32.1913 73.4535 32.511L74.1833 34.373L74.9132 36.2351C75.4722 36.016 75.9984 35.8756 76.4975 35.7629C76.9027 35.6713 77.5682 35.5448 77.9926 35.4266L77.4558 33.5ZM74.1833 34.373L73.5092 32.4901C71.6041 33.1722 69.2534 35.3716 69.3623 38.5365L71.3611 38.4678L73.3599 38.399C73.343 37.9062 73.5169 37.4484 73.8312 37.0467C74.1625 36.6231 74.5798 36.3554 74.8575 36.256L74.1833 34.373ZM71.3611 38.4678L69.3611 38.4783C69.3699 40.1337 70.0954 41.4996 70.9783 42.4631C71.8388 43.4022 72.9719 44.0971 74.0805 44.3552L74.5339 42.4072L74.9873 40.4593C74.7657 40.4077 74.318 40.187 73.9274 39.7607C73.5592 39.359 73.3634 38.91 73.3611 38.4572L71.3611 38.4678ZM74.5339 42.4072L73.9887 44.3315C75.0206 44.6239 75.9703 44.8194 76.7469 44.9836C77.5643 45.1564 78.1263 45.2828 78.5658 45.4399L79.239 43.5566L79.9122 41.6733C79.1724 41.4089 78.3369 41.2313 77.5741 41.0701C76.7705 40.9002 75.9573 40.7318 75.0792 40.483L74.5339 42.4072ZM79.239 43.5566L78.6705 45.4742L78.8913 45.5396L79.4597 43.6221L80.0282 41.7046L79.8075 41.6391L79.239 43.5566ZM79.4597 43.6221L78.9733 45.562C81.8341 46.2794 84.3853 47.8408 86.316 50.0569L87.824 48.7432L89.332 47.4294C86.862 44.5942 83.5966 42.5975 79.9462 41.6821L79.4597 43.6221ZM87.824 48.7432L86.321 50.0627C88.2785 52.2924 89.6562 55.1813 90.4036 58.3249L92.3494 57.8623L94.2951 57.3997C93.4255 53.7419 91.7901 50.2293 89.327 47.4237L87.824 48.7432ZM92.3494 57.8623L90.4078 58.3421C90.5563 58.9433 90.7691 60.2533 91.2764 61.6675L93.1589 60.9922L95.0415 60.3168C94.6215 59.1461 94.5504 58.4324 94.291 57.3826L92.3494 57.8623ZM93.1589 60.9922L91.2676 61.6425C91.6251 62.6822 92.5858 64.2794 94.2976 65.1065L95.1677 63.3057L96.0378 61.5048C95.8247 61.4019 95.6081 61.221 95.4135 60.9746C95.2157 60.7243 95.0966 60.4767 95.0502 60.3419L93.1589 60.9922ZM95.1677 63.3057L94.294 65.1047C95.8416 65.8563 97.1225 65.7782 97.782 65.7433L97.6765 63.7461L97.571 61.7489C97.2729 61.7646 97.0675 61.7731 96.8349 61.7459C96.6183 61.7206 96.3577 61.6602 96.0415 61.5066L95.1677 63.3057ZM97.6765 63.7461L97.8254 65.7405L98.5579 65.6859L98.4089 63.6914L98.26 61.697L97.5276 61.7516L97.6765 63.7461ZM98.4089 63.6914L99.5386 65.3418L100.142 64.9287L99.0125 63.2783L97.8828 61.6279L97.2793 62.041L98.4089 63.6914ZM99.0125 63.2783L100.344 64.7702C100.303 64.8069 100.25 64.8408 100.494 64.6781C100.675 64.5575 100.941 64.3741 101.23 64.11C101.833 63.5594 102.399 62.7896 102.86 61.6368L101.004 60.8936L99.1469 60.1503C98.8875 60.7985 98.6497 61.0494 98.5338 61.1552C98.4635 61.2193 98.3905 61.273 98.2746 61.3503C98.2219 61.3854 97.9137 61.5782 97.6804 61.7864L99.0125 63.2783ZM101.004 60.8936L102.91 61.4983C103.176 60.6591 103.357 59.884 103.503 59.2147C103.657 58.5092 103.754 58.0089 103.877 57.5491L101.945 57.0322L100.013 56.5153C99.8576 57.0963 99.7229 57.7747 99.5946 58.3638C99.4585 58.989 99.3081 59.6242 99.0973 60.2888L101.004 60.8936ZM101.945 57.0322L103.882 57.531C104.502 55.1218 105.531 52.9357 106.939 51.1358L105.364 49.9033L103.789 48.6709C101.997 50.9615 100.747 53.6649 100.008 56.5335L101.945 57.0322ZM105.364 49.9033L103.466 50.5333C105.275 55.9831 105.981 61.81 105.519 67.5716L107.512 67.7314L109.506 67.8913C110.011 61.5965 109.24 55.2323 107.262 49.2733L105.364 49.9033ZM107.512 67.7314L105.519 67.566C104.609 78.5333 99.3781 88.6896 90.9774 95.7974L92.2693 97.3242L93.5611 98.851C102.772 91.0574 108.508 79.9216 109.506 67.8969L107.512 67.7314ZM92.2693 97.3242L90.9867 95.7897C82.6268 102.777 71.8475 106.186 60.991 105.277L60.824 107.27L60.657 109.263C72.563 110.26 84.384 106.522 93.5519 98.8588L92.2693 97.3242ZM60.824 107.27L60.9467 105.273C57.0649 105.035 53.1349 104.039 49.3771 102.669L48.6921 104.548L48.0072 106.427C52.0023 107.883 56.3224 108.997 60.7013 109.266L60.824 107.27ZM48.6921 104.548L49.3777 102.669C48.1988 102.239 47.2395 101.726 45.8553 101.123C44.5795 100.568 43.1083 100.024 41.4407 99.8813L41.2703 101.874L41.0998 103.867C42.1178 103.954 43.1158 104.293 44.2587 104.791C45.2931 105.241 46.702 105.951 48.0066 106.427L48.6921 104.548ZM41.2703 101.874L41.4417 99.8814C38.6011 99.637 35.7764 100.346 33.5556 100.714L33.8826 102.688L34.2096 104.661C36.9003 104.215 38.9184 103.679 41.0989 103.867L41.2703 101.874ZM33.8826 102.688L33.544 100.716C30.5732 101.227 27.8509 101.79 25.0232 102.088L25.2332 104.077L25.4431 106.066C28.443 105.749 31.4219 105.139 34.2211 104.659L33.8826 102.688ZM25.2332 104.077L27.1034 104.786C27.8175 102.901 28.6103 100.239 29.1676 97.5458C29.7153 94.8991 30.0823 92.007 29.8084 89.7512L27.823 89.9922L25.8376 90.2332C26.0304 91.8213 25.7771 94.1908 25.2506 96.7352C24.7336 99.2333 23.9981 101.692 23.3629 103.369L25.2332 104.077ZM27.823 89.9922L29.8083 89.7506C29.6285 88.2725 28.8724 86.6894 28.2035 85.414C27.4434 83.9645 26.782 82.8773 26.3023 81.8401L24.4871 82.6797L22.6718 83.5193C23.1925 84.6451 24.0686 86.1419 24.6611 87.2717C25.3449 88.5756 25.7565 89.5673 25.8376 90.2338L27.823 89.9922ZM24.4871 82.6797L26.3023 81.8402C24.0296 76.9259 22.6973 71.7815 22.408 66.4062L20.4109 66.5137L18.4138 66.6212C18.7318 72.5312 20.1982 78.1707 22.6718 83.5192L24.4871 82.6797ZM20.4109 66.5137L22.4077 66.4009C21.7871 55.4132 25.537 44.6248 32.838 36.3903L31.3416 35.0635L29.8451 33.7366C21.8436 42.7611 17.7339 54.5844 18.4141 66.6265L20.4109 66.5137ZM31.3416 35.0635L32.828 36.4016C40.8536 27.4866 50.8819 23.2382 62.8482 22.6076L62.7429 20.6104L62.6377 18.6131C49.7426 19.2927 38.6732 23.9301 29.8551 33.7253L31.3416 35.0635ZM63.3171 71.9385L63.3169 69.9385C59.4803 69.9388 56.3682 73.0488 56.3679 76.8866L58.3679 76.8867L60.3679 76.8869C60.3681 75.2591 61.6885 73.9386 63.3173 73.9385L63.3171 71.9385ZM58.3679 76.8867H56.3679C56.3679 80.7244 59.4798 83.8356 63.3169 83.8359L63.3171 81.8359L63.3173 79.8359C61.6887 79.8358 60.3679 78.5149 60.3679 76.8867H58.3679ZM63.3171 81.8359V83.8359H80.158V81.8359V79.8359H63.3171V81.8359ZM80.158 81.8359L80.1581 83.8359C83.9958 83.8356 87.1062 80.7239 87.1062 76.8867H85.1062H83.1062C83.1062 78.5154 81.7859 79.8358 80.1578 79.8359L80.158 81.8359ZM85.1062 76.8867L87.1062 76.8866C87.1059 73.0493 83.9953 69.9388 80.1581 69.9385L80.158 71.9385L80.1578 73.9385C81.7861 73.9386 83.1061 75.2586 83.1062 76.8869L85.1062 76.8867ZM80.158 71.9385V69.9385H63.3171V71.9385V73.9385H80.158V71.9385ZM47.8416 52.1621L47.8414 50.1621C44.0042 50.1625 40.8926 53.2739 40.8923 57.1112L42.8923 57.1113L44.8923 57.1115C44.8924 55.4832 46.2133 54.1623 47.8417 54.1621L47.8416 52.1621ZM42.8923 57.1113L40.8923 57.1115C40.8926 60.9492 44.0047 64.0592 47.8414 64.0596L47.8416 62.0596L47.8417 60.0596C46.2129 60.0594 44.8925 58.7389 44.8923 57.1112L42.8923 57.1113ZM47.8416 62.0596V64.0596H80.158V62.0596V60.0596H47.8416V62.0596ZM80.158 62.0596L80.1581 64.0596C83.9953 64.0593 87.1059 60.9487 87.1062 57.1115L85.1062 57.1113L83.1062 57.1112C83.1061 58.7395 81.7861 60.0594 80.1578 60.0596L80.158 62.0596ZM85.1062 57.1113L87.1062 57.1112C87.106 53.2744 83.9958 50.1624 80.1581 50.1621L80.158 52.1621L80.1578 54.1621C81.7857 54.1622 83.1061 55.4826 83.1062 57.1115L85.1062 57.1113ZM80.158 52.1621V50.1621H47.8416V52.1621V54.1621H80.158V52.1621ZM96.5916 18.1396L96.367 20.127C96.4367 20.1349 96.4705 20.1419 96.4809 20.1444C96.491 20.1469 96.4572 20.1399 96.3983 20.1109C96.3358 20.0802 96.2456 20.0247 96.1534 19.9331C96.0585 19.839 95.9884 19.7333 95.9435 19.6327L97.7693 18.8164L99.5951 18.0001C98.9053 16.4573 97.3979 16.218 96.8161 16.1523L96.5916 18.1396ZM97.7693 18.8164L95.9436 19.6329C96.0408 19.8504 96.1397 20.1893 96.251 20.683C96.3381 21.0694 96.4735 21.7575 96.5861 22.2107L98.5271 21.7285L100.468 21.2463C100.357 20.801 100.297 20.4433 100.153 19.8033C100.033 19.2707 99.8647 18.6028 99.595 17.9999L97.7693 18.8164ZM98.5271 21.7285L96.5861 22.2108C97.3615 25.3316 98.5601 28.8347 100.806 31.629L102.365 30.376L103.924 29.123C102.227 27.0117 101.199 24.1877 100.468 21.2462L98.5271 21.7285ZM102.365 30.376L100.806 31.6294C102.295 33.4807 104.16 34.995 106.277 36.0725L107.184 34.29L108.091 32.5076C106.478 31.6867 105.058 30.5331 103.923 29.1226L102.365 30.376ZM107.184 34.29L106.269 36.0681C109.219 37.5876 112.341 38.2224 115.023 39.0074L115.585 37.0879L116.146 35.1684C113.035 34.2578 110.597 33.7982 108.1 32.512L107.184 34.29ZM115.585 37.0879L115.022 39.007C114.798 38.9413 114.551 38.6881 114.534 38.3271C114.526 38.1548 114.573 37.976 114.675 37.826C114.781 37.6704 114.901 37.6106 114.937 37.5974L115.627 39.4746L116.317 41.3518C117.742 40.828 118.595 39.5456 118.53 38.1422C118.467 36.7928 117.557 35.5823 116.148 35.1688L115.585 37.0879ZM115.627 39.4746L114.936 37.5978C114.606 37.7192 114.234 37.8164 113.772 37.924C113.347 38.0232 112.787 38.1433 112.264 38.2907L112.806 40.2158L113.349 42.1409C113.755 42.0263 114.154 41.9423 114.681 41.8195C115.171 41.7053 115.744 41.5628 116.318 41.3514L115.627 39.4746ZM112.806 40.2158L112.273 38.2883C109.056 39.1786 105.928 40.591 103.25 42.8613L104.544 44.3867L105.837 45.9122C107.96 44.1123 110.519 42.9239 113.34 42.1434L112.806 40.2158ZM104.544 44.3867L103.25 42.8611C100.019 45.6005 98.0686 49.1881 97.0444 53.1021L98.9792 53.6084L100.914 54.1147C101.773 50.833 103.35 48.0208 105.837 45.9124L104.544 44.3867ZM98.9792 53.6084L97.0444 53.1019C96.8935 53.6783 96.7715 54.2754 96.6639 54.7685C96.5503 55.2888 96.4444 55.7366 96.3102 56.1527L98.2136 56.7666L100.117 57.3805C100.314 56.7684 100.454 56.1611 100.572 55.6213C100.696 55.0544 100.791 54.5865 100.914 54.1149L98.9792 53.6084ZM98.2136 56.7666L96.3101 56.1531C96.3601 55.9979 96.4266 55.8934 96.4655 55.84C96.5039 55.7875 96.5296 55.7653 96.5224 55.772C96.5161 55.7778 96.4953 55.7959 96.4509 55.8289C96.4054 55.8627 96.355 55.8976 96.28 55.9491L97.4109 57.5986L98.5418 59.2482C98.6748 59.157 98.9638 58.962 99.2354 58.7113C99.4973 58.4696 99.9075 58.0307 100.117 57.3801L98.2136 56.7666ZM97.4109 57.5986L97.2654 55.6039C97.0694 55.6182 97.174 55.5748 97.3788 55.6756C97.4937 55.7322 97.5982 55.814 97.6777 55.9077C97.7525 55.9959 97.7754 56.0594 97.7735 56.0541L95.8992 56.752L94.0249 57.4498C94.3071 58.2079 94.8198 58.8743 95.612 59.2643C96.3295 59.6175 97.0531 59.63 97.5564 59.5933L97.4109 57.5986ZM95.8992 56.752L97.7733 56.0536C97.564 55.4919 97.469 54.8556 97.2413 53.8991L95.2957 54.3623L93.35 54.8255C93.4821 55.3801 93.702 56.5833 94.0251 57.4503L95.8992 56.752ZM95.2957 54.3623L97.2413 53.8993C95.5327 46.7198 90.8432 40.5705 83.1614 38.6137L82.6677 40.5518L82.174 42.4899C88.0834 43.9952 91.8986 48.7268 93.35 54.8253L95.2957 54.3623ZM82.6677 40.5518L83.3233 38.6623C82.5306 38.3872 81.7271 38.2097 81.0307 38.0622C80.2964 37.9067 79.6957 37.787 79.1225 37.6194L78.5613 39.5391L78 41.4587C78.757 41.68 79.547 41.8368 80.2021 41.9755C80.8952 42.1222 81.4798 42.2566 82.0121 42.4413L82.6677 40.5518ZM78.5613 39.5391L79.1235 37.6197C79.1233 37.6197 79.13 37.6216 79.1422 37.6271C79.1544 37.6326 79.1718 37.6414 79.1928 37.6548C79.2356 37.682 79.2888 37.7253 79.3414 37.7891C79.4509 37.9219 79.5233 38.1025 79.5289 38.2991C79.5415 38.7398 79.252 38.9262 79.2156 38.9408L78.4724 37.084L77.7293 35.2272C76.4084 35.7558 75.4894 36.9724 75.5305 38.4134C75.5725 39.8837 76.5971 41.0478 77.9991 41.4584L78.5613 39.5391ZM78.4724 37.084L79.2155 38.9408C79.474 38.8374 79.7711 38.7564 80.1599 38.669C80.4943 38.5939 81.0313 38.4875 81.4863 38.3685L80.9802 36.4336L80.4741 34.4987C80.1009 34.5963 79.7916 34.652 79.2828 34.7664C78.8286 34.8685 78.2859 35.0044 77.7293 35.2272L78.4724 37.084ZM80.9802 36.4336L81.4952 38.3662C82.818 38.0137 84.1192 37.5859 85.3923 37.0865L84.6619 35.2246L83.9314 33.3628C82.7981 33.8074 81.6407 34.1878 80.4653 34.501L80.9802 36.4336ZM84.6619 35.2246L85.4103 37.0793C91.5701 34.5936 94.9917 29.7438 96.5398 23.6972L94.6023 23.2012L92.6648 22.7051C91.3626 27.7911 88.6555 31.4564 83.9134 33.3699L84.6619 35.2246ZM94.6023 23.2012L96.5398 23.6972C96.7306 22.9521 96.8894 22.1604 97.0358 21.4801C97.1889 20.7684 97.3362 20.1384 97.5199 19.5705L95.6169 18.9551L93.714 18.3396C93.464 19.1125 93.2821 19.9101 93.1253 20.6386C92.9618 21.3984 92.8301 22.0593 92.6648 22.7051L94.6023 23.2012ZM95.6169 18.9551L97.5198 19.5708C97.4201 19.8789 97.2349 20.0276 97.1994 20.0539C97.1792 20.0689 97.1771 20.0676 97.2039 20.0538C97.23 20.0404 97.2701 20.0221 97.3295 19.9985L96.5916 18.1396L95.8536 16.2808C95.5915 16.3848 95.1961 16.5592 94.8143 16.8428C94.4246 17.1323 93.95 17.6101 93.7141 18.3394L95.6169 18.9551Z" fill="#A8EA43" mask="url(#path-2-inside-1_1_87)"/>
<defs>
<linearGradient id="paint0_linear_1_87" x1="64" y1="33.7067" x2="107.817" y2="188.854" gradientUnits="userSpaceOnUse">
<stop stop-color="#1C1B1C"/>
<stop offset="0.115385" stop-color="#1C1B1C"/>
<stop offset="1" stop-color="#827D82"/>
</linearGradient>
<linearGradient id="paint1_linear_1_87" x1="70.4867" y1="13.9862" x2="70.4867" y2="107.421" gradientUnits="userSpaceOnUse">
<stop stop-color="#95EA5C"/>
<stop offset="1" stop-color="#8BBF2F"/>
</linearGradient>
</defs>
</svg>
