<svg width="128" height="128" viewBox="0 0 128 128" fill="none" xmlns="http://www.w3.org/2000/svg">
<g clip-path="url(#clip0_1_245)">
<rect width="128" height="128" rx="40" fill="url(#paint0_linear_1_245)"/>
<mask id="path-3-inside-1_1_245" fill="white">
<path d="M82.8605 -14.7628C85.0601 -14.8658 87.6228 -14.78 89.8107 -14.6124C105.919 -13.4902 120.903 -5.94155 131.39 6.33679C141.935 18.6674 146.858 35.1261 145.567 51.2362C144.23 67.3375 136.55 82.248 124.216 92.6835C111.941 102.943 96.1145 107.948 80.174 106.612C74.389 106.257 68.6112 104.781 63.1818 102.802C59.7032 101.533 56.5487 99.3775 52.7872 99.0555C49.2707 98.7528 45.8794 99.6251 42.4396 100.195C38.3984 100.889 34.4058 101.712 30.3243 102.142C32.2143 97.154 34.6058 87.798 33.9523 82.4139C33.5869 79.4102 30.6807 75.2015 29.2794 72.1718C25.9555 64.9846 23.9958 57.4334 23.5704 49.5302C22.6592 33.4018 28.1632 17.5671 38.88 5.48035C50.6759 -7.62282 65.4495 -13.8454 82.8605 -14.7628ZM85.8839 57.2343C82.624 57.2343 79.9807 59.8767 79.9806 63.1366C79.9806 66.3966 82.6239 69.0399 85.8839 69.0399H105.971C109.231 69.0399 111.874 66.3966 111.874 63.1366C111.874 59.8767 109.231 57.2343 105.971 57.2343H85.8839ZM67.4249 33.6454C64.165 33.6454 61.5217 36.2878 61.5216 39.5477C61.5216 42.8077 64.1649 45.451 67.4249 45.451H105.972C109.232 45.4508 111.874 42.8076 111.874 39.5477C111.874 36.288 109.232 33.6456 105.972 33.6454H67.4249Z"/>
</mask>
<path d="M82.8605 -14.7628C85.0601 -14.8658 87.6228 -14.78 89.8107 -14.6124C105.919 -13.4902 120.903 -5.94155 131.39 6.33679C141.935 18.6674 146.858 35.1261 145.567 51.2362C144.23 67.3375 136.55 82.248 124.216 92.6835C111.941 102.943 96.1145 107.948 80.174 106.612C74.389 106.257 68.6112 104.781 63.1818 102.802C59.7032 101.533 56.5487 99.3775 52.7872 99.0555C49.2707 98.7528 45.8794 99.6251 42.4396 100.195C38.3984 100.889 34.4058 101.712 30.3243 102.142C32.2143 97.154 34.6058 87.798 33.9523 82.4139C33.5869 79.4102 30.6807 75.2015 29.2794 72.1718C25.9555 64.9846 23.9958 57.4334 23.5704 49.5302C22.6592 33.4018 28.1632 17.5671 38.88 5.48035C50.6759 -7.62282 65.4495 -13.8454 82.8605 -14.7628ZM85.8839 57.2343C82.624 57.2343 79.9807 59.8767 79.9806 63.1366C79.9806 66.3966 82.6239 69.0399 85.8839 69.0399H105.971C109.231 69.0399 111.874 66.3966 111.874 63.1366C111.874 59.8767 109.231 57.2343 105.971 57.2343H85.8839ZM67.4249 33.6454C64.165 33.6454 61.5217 36.2878 61.5216 39.5477C61.5216 42.8077 64.1649 45.451 67.4249 45.451H105.972C109.232 45.4508 111.874 42.8076 111.874 39.5477C111.874 36.288 109.232 33.6456 105.972 33.6454H67.4249Z" fill="url(#paint1_linear_1_245)"/>
<path d="M82.8605 -14.7628L82.767 -16.7607L82.7552 -16.76L82.8605 -14.7628ZM89.8107 -14.6124L89.6579 -12.6182L89.6717 -12.6173L89.8107 -14.6124ZM131.39 6.33679L129.869 7.63571L129.87 7.63668L131.39 6.33679ZM145.567 51.2362L147.56 51.4016L147.56 51.396L145.567 51.2362ZM124.216 92.6835L125.499 94.218L125.508 94.2103L124.216 92.6835ZM80.174 106.612L80.3409 104.619L80.3188 104.617L80.2966 104.616L80.174 106.612ZM63.1818 102.802L62.4963 104.681L62.4968 104.681L63.1818 102.802ZM52.7872 99.0555L52.6157 101.048L52.6167 101.048L52.7872 99.0555ZM42.4396 100.195L42.1126 98.2221L42.101 98.2241L42.4396 100.195ZM30.3243 102.142L28.4541 101.434L27.3028 104.473L30.5343 104.131L30.3243 102.142ZM33.9523 82.4139L35.9377 82.1729L35.9376 82.1725L33.9523 82.4139ZM29.2794 72.1718L27.4642 73.0113L27.4642 73.0113L29.2794 72.1718ZM23.5704 49.5302L25.5676 49.4227L25.5673 49.4173L23.5704 49.5302ZM38.88 5.48035L37.3936 4.14222L37.3885 4.14784L37.3835 4.15349L38.88 5.48035ZM85.8839 57.2343V59.2343V59.2343V57.2343ZM79.9806 63.1366L77.9806 63.1365V63.1366H79.9806ZM85.8839 69.0399V71.0399V71.0399V69.0399ZM105.971 69.0399V67.0399V67.0399V69.0399ZM111.874 63.1366H113.874V63.1365L111.874 63.1366ZM105.971 57.2343V55.2343V55.2343V57.2343ZM61.5216 39.5477L59.5216 39.5476V39.5477H61.5216ZM105.972 45.451V47.451H105.972L105.972 45.451ZM111.874 39.5477H113.874V39.5476L111.874 39.5477ZM105.972 33.6454L105.972 31.6454H105.972V33.6454ZM82.8605 -14.7628L82.954 -12.765C85.047 -12.863 87.5232 -12.7818 89.6579 -12.6183L89.8107 -14.6124L89.9634 -16.6066C87.7223 -16.7782 85.0732 -16.8686 82.767 -16.7606L82.8605 -14.7628ZM89.8107 -14.6124L89.6717 -12.6173C105.245 -11.5323 119.731 -4.23449 129.869 7.63571L131.39 6.33679L132.911 5.03787C122.075 -7.64861 106.593 -15.4481 89.9497 -16.6076L89.8107 -14.6124ZM131.39 6.33679L129.87 7.63668C140.047 19.5371 144.825 35.4615 143.573 51.0764L145.567 51.2362L147.56 51.396C148.892 34.7907 143.823 17.7976 132.91 5.0369L131.39 6.33679ZM145.567 51.2362L143.573 51.0708C142.281 66.6433 134.853 81.064 122.924 91.1567L124.216 92.6835L125.508 94.2103C138.247 83.432 146.179 68.0318 147.56 51.4016L145.567 51.2362ZM124.216 92.6835L122.933 91.1489C111.063 101.071 95.7569 105.911 80.3409 104.619L80.174 106.612L80.007 108.605C96.4722 109.985 112.82 104.815 125.499 94.218L124.216 92.6835ZM80.174 106.612L80.2966 104.616C74.7599 104.276 69.1772 102.858 63.8667 100.923L63.1818 102.802L62.4968 104.681C68.0452 106.703 74.018 108.238 80.0513 108.608L80.174 106.612ZM63.1818 102.802L63.8672 100.923C62.1912 100.311 60.7575 99.5535 58.8892 98.7398C57.1292 97.9732 55.1634 97.2516 52.9578 97.0628L52.7872 99.0555L52.6167 101.048C54.1725 101.181 55.6647 101.698 57.292 102.407C58.811 103.069 60.6938 104.023 62.4963 104.681L63.1818 102.802ZM52.7872 99.0555L52.9588 97.0629C49.112 96.7317 45.3171 97.691 42.1126 98.2221L42.4396 100.195L42.7666 102.168C46.4418 101.559 49.4293 100.774 52.6157 101.048L52.7872 99.0555ZM42.4396 100.195L42.101 98.2241C37.9735 98.9329 34.1098 99.7317 30.1144 100.154L30.3243 102.142L30.5343 104.131C34.7019 103.691 38.8233 102.846 42.7781 102.166L42.4396 100.195ZM30.3243 102.142L32.1946 102.851C33.179 100.253 34.278 96.5649 35.0506 92.8319C35.8136 89.1452 36.305 85.1989 35.9377 82.1729L33.9523 82.4139L31.9668 82.6549C32.2531 85.0131 31.8755 88.4368 31.1336 92.0212C30.4013 95.5594 29.3596 99.0437 28.4541 101.434L30.3243 102.142ZM33.9523 82.4139L35.9376 82.1725C35.7056 80.2647 34.7154 78.1657 33.7755 76.3737C32.7443 74.4075 31.7748 72.8027 31.0947 71.3322L29.2794 72.1718L27.4642 73.0113C28.1854 74.5706 29.3696 76.585 30.2331 78.2315C31.188 80.0522 31.8336 81.5595 31.9669 82.6554L33.9523 82.4139ZM29.2794 72.1718L31.0947 71.3322C27.8712 64.3622 25.9785 57.0585 25.5675 49.4227L23.5704 49.5302L21.5733 49.6376C22.0131 57.8083 24.0398 65.6069 27.4642 73.0113L29.2794 72.1718ZM23.5704 49.5302L25.5673 49.4173C24.6858 33.8162 30.0099 18.499 40.3765 6.80721L38.88 5.48035L37.3835 4.15349C26.3165 16.6353 20.6326 32.9875 21.5736 49.643L23.5704 49.5302ZM38.88 5.48035L40.3664 6.81847C51.7662 -5.8446 66.0192 -11.8726 82.9657 -12.7656L82.8605 -14.7628L82.7552 -16.76C64.8799 -15.8181 49.5857 -9.40104 37.3936 4.14222L38.88 5.48035ZM85.8839 57.2343V55.2343C81.5198 55.2343 77.9808 58.7718 77.9806 63.1365L79.9806 63.1366L81.9806 63.1367C81.9807 60.9816 83.7282 59.2343 85.8839 59.2343V57.2343ZM79.9806 63.1366H77.9806C77.9806 67.5012 81.5193 71.0399 85.8839 71.0399V69.0399V67.0399C83.7285 67.0399 81.9806 65.292 81.9806 63.1366H79.9806ZM85.8839 69.0399V71.0399H105.971V69.0399V67.0399H85.8839V69.0399ZM105.971 69.0399V71.0399C110.335 71.0399 113.874 67.5012 113.874 63.1366H111.874H109.874C109.874 65.292 108.126 67.0399 105.971 67.0399V69.0399ZM111.874 63.1366L113.874 63.1365C113.874 58.7718 110.335 55.2343 105.971 55.2343V57.2343V59.2343C108.127 59.2343 109.874 60.9816 109.874 63.1367L111.874 63.1366ZM105.971 57.2343V55.2343H85.8839V57.2343V59.2343H105.971V57.2343ZM67.4249 33.6454V31.6454C63.0608 31.6454 59.5218 35.1829 59.5216 39.5476L61.5216 39.5477L63.5216 39.5478C63.5217 37.3928 65.2692 35.6454 67.4249 35.6454V33.6454ZM61.5216 39.5477H59.5216C59.5216 43.9123 63.0603 47.451 67.4249 47.451V45.451V43.451C65.2695 43.451 63.5216 41.7032 63.5216 39.5477H61.5216ZM67.4249 45.451V47.451H105.972V45.451V43.451H67.4249V45.451ZM105.972 45.451L105.972 47.451C110.336 47.4507 113.874 43.9119 113.874 39.5477H111.874H109.874C109.874 41.7033 108.127 43.4509 105.972 43.451L105.972 45.451ZM111.874 39.5477L113.874 39.5476C113.874 35.1833 110.336 31.6457 105.972 31.6454L105.972 33.6454L105.972 35.6454C108.127 35.6455 109.874 37.3926 109.874 39.5478L111.874 39.5477ZM105.972 33.6454V31.6454H67.4249V33.6454V35.6454H105.972V33.6454Z" fill="#A8EA43" mask="url(#path-3-inside-1_1_245)"/>
</g>
<rect x="1" y="1" width="126" height="126" rx="39" stroke="#4A4A4A" stroke-width="1"/>
<defs>
<linearGradient id="paint0_linear_1_245" x1="64" y1="33.7067" x2="107.817" y2="188.854" gradientUnits="userSpaceOnUse">
<stop stop-color="#353435"/>
<stop offset="0.115385" stop-color="#383838"/>
<stop offset="1" stop-color="#827D82"/>
</linearGradient>
<linearGradient id="paint1_linear_1_245" x1="88.0203" y1="-20.6741" x2="88.0203" y2="106.821" gradientUnits="userSpaceOnUse">
<stop stop-color="#95EA5C"/>
<stop offset="1" stop-color="#8BBF2F"/>
</linearGradient>
<clipPath id="clip0_1_245">
<rect width="128" height="128" rx="40" fill="white"/>
</clipPath>
</defs>
</svg>
