<svg width="128" height="128" viewBox="0 0 128 128" fill="none" xmlns="http://www.w3.org/2000/svg">
  <defs>
    <linearGradient id="bg" x1="64" y1="33.707" x2="107.817" y2="188.854" gradientUnits="userSpaceOnUse">
      <stop stop-color="#1C1B1C"/>
      <stop offset="0.115" stop-color="#1C1B1C"/>
      <stop offset="1" stop-color="#827D82"/>
    </linearGradient>
    <linearGradient id="fg" x1="64.078" y1="29.45" x2="63.922" y2="99.643" gradientUnits="userSpaceOnUse">
      <stop stop-color="#95EA5C"/>
      <stop offset="1" stop-color="#8BBF2F"/>
    </linearGradient>
    <linearGradient id="sprk" x1="101.672" y1="15.698" x2="101.672" y2="41.356" gradientUnits="userSpaceOnUse">
      <stop stop-color="#95EA5C"/>
      <stop offset="1" stop-color="#8BBF2F"/>
    </linearGradient>
  </defs>
  <rect x="0.5" y="0.5" width="127" height="127" rx="39.5" fill="url(#bg)"/>
  <rect x="0.5" y="0.5" width="127" height="127" rx="39.5" stroke="#4A4A4A" stroke-width="0.5"/>
  <path d="M64.05 30.302C65.021 30.288 65.993 30.315 66.962 30.382C75.939 30.957 84.309 35.111 90.195 41.912C96.083 48.685 99.052 57.512 98.456 66.467C97.81 75.633 93.528 84.161 86.562 90.154C80.72 95.227 73.297 98.113 65.563 98.318C64.209 98.357 63.049 98.285 61.699 98.189C58.946 97.926 56.236 97.329 53.627 96.412C52.57 96.05 50.287 94.836 49.379 94.798C48.114 94.745 46.057 95.375 44.69 95.627C43.23 95.898 41.754 96.068 40.271 96.133C38.345 96.217 36.051 96.218 34.557 94.79C33.527 93.852 33.021 92.236 33.272 90.85C33.792 87.977 35.03 85.029 35.161 82.092C35.196 81.289 34.131 79.484 33.746 78.677C33.413 77.971 33.1 77.256 32.806 76.532C27.967 64.461 30.458 50.391 39.468 40.971C46.197 33.938 54.401 30.593 64.05 30.302Z" fill="#1C1B1C"/>
  <path d="M63.036 30.474C64.251 30.418 65.684 30.465 66.918 30.56L66.925 30.56C75.954 31.189 84.352 35.42 90.23 42.302L90.23 42.303C96.131 49.203 98.9 58.432 98.175 67.481C97.426 76.507 93.122 84.865 86.209 90.715C79.327 96.468 70.454 99.274 61.517 98.525L61.506 98.525L61.495 98.524L60.892 98.479C57.876 98.222 54.852 97.433 51.97 96.382L51.969 96.382C50.997 96.028 50.153 95.583 49.089 95.119C48.205 94.734 47.239 94.374 46.176 94.218L45.714 94.164C43.52 93.975 41.361 94.522 39.494 94.831L39.488 94.832C37.655 95.147 35.903 95.493 34.135 95.748C34.537 94.489 34.936 93.02 35.242 91.537C35.682 89.414 35.961 87.156 35.752 85.436C35.622 84.366 35.063 83.177 34.52 82.142C33.932 81.02 33.364 80.079 32.97 79.227C31.102 75.188 30.005 70.954 29.767 66.526L29.767 66.523L29.729 65.675C29.451 56.928 32.528 48.393 38.346 41.827C44.956 34.486 53.221 30.992 63.037 30.475L63.036 30.474Z" fill="url(#fg)" stroke="#A8EA43" stroke-width="2"/>
  <path d="M101.478 17.382C101.536 17.649 101.61 18.011 101.674 18.272C102.175 20.287 102.942 22.514 104.361 24.279V24.28C105.301 25.449 106.478 26.404 107.815 27.085V27.087C109.48 27.944 111.217 28.359 112.824 28.801C112.759 28.817 112.693 28.836 112.624 28.852C112.482 28.885 112.323 28.921 112.158 28.959L111.657 29.087C109.597 29.658 107.608 30.559 105.91 31.999C103.992 33.624 102.783 35.724 102.101 38.038L101.971 38.504C101.875 38.87 101.798 39.249 101.727 39.575C101.713 39.639 101.697 39.701 101.683 39.762C101.633 39.538 101.583 39.291 101.517 39.015C100.428 34.438 97.454 30.552 92.609 29.306C92.13 29.144 91.644 29.036 91.208 28.944C90.95 28.889 90.713 28.84 90.487 28.789C90.536 28.777 90.586 28.763 90.638 28.752C90.869 28.7 91.201 28.634 91.491 28.558L91.495 28.557C92.344 28.331 93.179 28.057 93.997 27.736L94.005 27.732C97.903 26.159 100.074 23.096 101.062 19.237C101.184 18.76 101.286 18.255 101.382 17.806C101.414 17.661 101.446 17.52 101.478 17.382Z" fill="url(#sprk)" stroke="#A8EA43" stroke-width="2"/>
  <path d="M50.94 56.554H77.061" stroke="#000000" stroke-width="8" stroke-linecap="round"/>
  <path d="M63.448 72.539L77.061 72.539" stroke="#000000" stroke-width="8" stroke-linecap="round"/>
</svg>
